<svg width="220" height="52" viewBox="0 0 220 52" fill="none" xmlns="http://www.w3.org/2000/svg">
  <rect width="52" height="52" rx="12" fill="#2563EB"/>
  <path d="M14 12H26.5C33.4036 12 39 17.5964 39 24.5C39 31.4036 33.4036 37 26.5 37H22V31H26C30.4183 31 34 27.4183 34 23C34 18.5817 30.4183 15 26 15H20V39H14V12Z" fill="white"/>
  <path d="M34.8 36.8L31.1 33.1" stroke="#BFDBFE" stroke-width="2.4" stroke-linecap="round"/>
  <path d="M68 18.6H78.8C85.3169 18.6 90.6 23.883 90.6 30.4C90.6 36.9169 85.3169 42.2 78.8 42.2H73.6V36.8H78.4C82.4668 36.8 85.8 33.4668 85.8 29.4C85.8 25.3331 82.4668 22 78.4 22H73.2V45H68V18.6Z" fill="#0F172A"/>
  <path d="M98.2 45V18.6H104.2V45H98.2Z" fill="#0F172A"/>
  <path d="M111.2 45V18.6H117.2V39.6H130V45H111.2Z" fill="#0F172A"/>
  <path d="M136.2 31.8C136.2 23.7 142.4 18 150.7 18C159.1 18 165.2 23.7 165.2 31.8C165.2 39.9 159.1 45.6 150.7 45.6C142.4 45.6 136.2 39.9 136.2 31.8ZM159.2 31.8C159.2 26.8 155.6 22.9 150.7 22.9C145.9 22.9 142.2 26.8 142.2 31.8C142.2 36.8 145.9 40.7 150.7 40.7C155.6 40.7 159.2 36.8 159.2 31.8Z" fill="#0F172A"/>
  <path d="M169.6 45V18.6H179.7C186.2 18.6 191.2 23.5 191.2 29.8C191.2 36.1 186.2 41 179.7 41H175.6V45H169.6ZM175.6 35.8H179.3C182.4 35.8 185.2 33.2 185.2 29.8C185.2 26.4 182.4 23.8 179.3 23.8H175.6V35.8Z" fill="#0F172A"/>
  <path d="M195.6 45V18.6H216V23.8H201.6V29.2H214.6V34.2H201.6V39.8H216V45H195.6Z" fill="#0F172A"/>
</svg>
